{
   "accessors" : 
   [
      {
         "bufferView" : 0,
         "byteOffset" : 0,
         "componentType" : 5126,
         "count" : 32137,
         "max" : [ 568327.375, 6670954.0, 139.35415649414062 ],
         "min" : [ 567786.0625, 6670754.0, -281.66348266601562 ],
         "type" : "VEC3"
      },
      {
         "bufferView" : 1,
         "byteOffset" : 0,
         "componentType" : 5126,
         "count" : 32137,
         "normalized" : false,
         "type" : "VEC2"
      },
      {
         "bufferView" : 2,
         "byteOffset" : 0,
         "componentType" : 5125,
         "count" : 129777,
         "type" : "SCALAR"
      }
   ],
   "asset" : 
   {
      "generator" : "VTK",
      "version" : "2.0"
   },
   "bufferViews" : 
   [
      {
         "buffer" : 0,
         "byteLength" : 385644,
         "byteOffset" : 0
      },
      {
         "buffer" : 1,
         "byteLength" : 257096,
         "byteOffset" : 0
      },
      {
         "buffer" : 2,
         "byteLength" : 519108,
         "byteOffset" : 0
      },
      {
         "buffer" : 3,
         "byteLength" : 273,
         "byteOffset" : 0
      }
   ],
   "buffers" : 
   [
      {
         "byteLength" : 385644,
         "uri" : "data:application/octet-stream;base64,"
      },
      {
         "byteLength" : 257096,
         "uri" : "data:application/octet-stream;base64,"
      },
      {
         "byteLength" : 519108,
         "uri" : "data:application/octet-stream;base64,"
      },
      {
         "byteLength" : 273,
         "uri" : "data:application/octet-stream;base64,"
      }
   ],
   "cameras" : 
   [
      {
         "perspective" : 
         {
            "aspectRatio" : 0.93429487179487181,
            "yfov" : 0.52359877559829882,
            "zfar" : 1913.9228868916489,
            "znear" : 898.54238461011096
         },
         "type" : "perspective"
      }
   ],
   "images" : 
   [
      {
         "bufferView" : 3,
         "mimeType" : "image/png"
      }
   ],
   "materials" : 
   [
      {
         "pbrMetallicRoughness" : 
         {
            "baseColorFactor" : [ 1.0, 1.0, 1.0, 1.0 ],
            "baseColorTexture" : 
            {
               "index" : 0,
               "texCoord" : 0
            },
            "metallicFactor" : 0.0,
            "roughnessFactor" : 1.0
         }
      }
   ],
   "meshes" : 
   [
      {
         "name" : "mesh0",
         "primitives" : 
         [
            {
               "attributes" : 
               {
                  "POSITION" : 0,
                  "TEXCOORD_0" : 1
               },
               "indices" : 2,
               "material" : 0,
               "mode" : 4
            }
         ]
      }
   ],
   "nodes" : 
   [
      {
         "mesh" : 0,
         "name" : "mesh0"
      },
      {
         "camera" : 0,
         "matrix" : 
         [
            -0.99869397647966385,
            0.050355441461650628,
            -0.0086412301461668128,
            0.0,
            -0.040428611651094057,
            -0.67546694136058205,
            0.73628115451160714,
            0.0,
            0.031238897278901626,
            0.73566890694400178,
            0.67662056623532796,
            0.0,
            837010.41185478622,
            4477388.9470683048,
            -4908013.8588235714,
            1.0
         ],
         "name" : "Camera Node"
      },
      {
         "children" : [ 0, 1 ],
         "name" : "Renderer Node"
      }
   ],
   "samplers" : 
   [
      {
         "magFilter" : 9728,
         "minFilter" : 9728,
         "wrapS" : 33071,
         "wrapT" : 33071
      }
   ],
   "scene" : 0,
   "scenes" : 
   [
      {
         "name" : "Layer 0",
         "nodes" : [ 2 ]
      }
   ],
   "textures" : 
   [
      {
         "sampler" : 0,
         "source" : 0
      }
   ]
}